# xmcd
#
# Track frame offsets:
#	183
#	99088
#	135168
#	204348
#
# Disc length: 3430 seconds
#
# Revision: 1
# Processed by: cddbd v1.4PL0 Copyright (c) Steve Scherf et al.
# Submitted via: EasyCDDAExtractor 5.1.0
#
DISCID=230d6404
DTITLE=compilation disc - A La Ellinika - Bouzouki Disco
DYEAR=1900
DGENRE=Country
TTITLE0=Part 1
TTITLE1=Part 2
TTITLE2=Part 3
TTITLE3=Part 4
EXTD=
EXTT0=
EXTT1=
EXTT2=
EXTT3=
PLAYORDER=
